<?xml version="1.0" encoding="utf-8"?>
<!-- Generator: Adobe Illustrator 23.0.1, SVG Export Plug-In . SVG Version: 6.00 Build 0)  -->
<svg version="1.1" id="Layer_1" xmlns="http://www.w3.org/2000/svg" xmlns:xlink="http://www.w3.org/1999/xlink" x="0px" y="0px"
	 viewBox="0 0 205.23 62" style="enable-background:new 0 0 205.23 62;" xml:space="preserve">
<style type="text/css">
	.st0{fill-rule:evenodd;clip-rule:evenodd;fill:#E3000F;}
	.st1{fill-rule:evenodd;clip-rule:evenodd;fill:#FFFFFF;}
	.st2{fill:#FFFFFF;}
	.st3{fill:#9C9C9C;}
</style>
<g>
	<path class="st1" d="M179.37,29.61v1.06c0,2.42,0.31,4.1,0.94,5.05c0.62,0.95,1.7,1.44,3.24,1.44c1.3,0,2.4-0.35,3.31-1.05
		c0.91-0.69,1.53-1.67,1.86-2.93h0.8c-0.36,1.62-1.07,2.85-2.15,3.66c-1.08,0.82-2.5,1.23-4.28,1.23c-2.01,0-3.7-0.68-5.07-2.02
		c-1.37-1.35-2.05-3-2.05-4.96c0-2.15,0.7-3.97,2.1-5.45c1.39-1.49,3.1-2.23,5.13-2.23c1.89,0,3.38,0.53,4.48,1.59
		c1.09,1.06,1.73,2.6,1.91,4.61H179.37z M179.48,28.59h6.82v-0.36c0-1.47-0.25-2.53-0.74-3.19c-0.49-0.65-1.29-0.98-2.4-0.98
		c-1.14,0-2.01,0.38-2.63,1.13C179.92,25.95,179.57,27.08,179.48,28.59z"/>
	<path class="st1" d="M163.38,29.61v1.06c0,2.42,0.31,4.1,0.94,5.05c0.62,0.95,1.7,1.44,3.24,1.44c1.3,0,2.4-0.35,3.31-1.05
		c0.91-0.69,1.53-1.67,1.86-2.93h0.8c-0.36,1.62-1.07,2.85-2.15,3.66c-1.08,0.82-2.5,1.23-4.28,1.23c-2.01,0-3.7-0.68-5.07-2.02
		c-1.37-1.35-2.05-3-2.05-4.96c0-2.15,0.7-3.97,2.1-5.45c1.39-1.49,3.1-2.23,5.13-2.23c1.89,0,3.38,0.53,4.48,1.59
		c1.09,1.06,1.73,2.6,1.91,4.61H163.38z M163.49,28.59h6.82v-0.36c0-1.47-0.25-2.53-0.74-3.19c-0.49-0.65-1.29-0.98-2.4-0.98
		c-1.14,0-2.01,0.38-2.63,1.13C163.94,25.95,163.58,27.08,163.49,28.59z"/>
	<path class="st1" d="M68.18,11.98c2.1,0,3.81,1.71,3.81,3.81c0,2.1-1.71,3.81-3.81,3.81c-2.1,0-3.81-1.71-3.81-3.81
		C64.37,13.69,66.07,11.98,68.18,11.98"/>
	<path class="st1" d="M117.25,38.08v-0.79h1.83V25.6h-1.87v-0.73h0.62c0.7,0,1.37-0.03,2.02-0.08c0.65-0.06,1.26-0.13,1.83-0.23
		l0.02,3.84c0.5-1.27,1.17-2.22,2.04-2.87c0.86-0.65,1.88-0.97,3.08-0.97c1.2,0,2.14,0.32,2.82,0.96c0.67,0.64,1.01,1.54,1.01,2.69
		v9.07h1.8v0.79h-6.39v-0.79h1.97v-9.17c0-0.87-0.17-1.51-0.52-1.93c-0.35-0.41-0.89-0.62-1.62-0.62c-1.11,0-2.08,0.56-2.89,1.67
		c-0.81,1.12-1.22,2.47-1.22,4.07v5.97h1.83v0.79H117.25z"/>
	<path class="st1" d="M147.5,38.08v-0.84h2.41V24.9h-2.34v-0.77c0.94,0,1.84-0.03,2.71-0.09c0.87-0.06,1.68-0.14,2.44-0.24v3.54
		c0.6-1.16,1.25-2.03,1.96-2.6c0.71-0.58,1.48-0.86,2.3-0.86c0.68,0,1.19,0.16,1.55,0.48c0.36,0.32,0.54,0.78,0.54,1.39
		c0,0.45-0.14,0.81-0.42,1.08c-0.28,0.27-0.65,0.41-1.11,0.41c-0.41,0-0.77-0.15-1.08-0.44c-0.3-0.3-0.46-0.65-0.46-1.05
		c0-0.1,0.01-0.21,0.04-0.34c0.02-0.13,0.04-0.21,0.04-0.25c0-0.1-0.01-0.16-0.04-0.19c-0.02-0.04-0.06-0.05-0.11-0.05
		c-0.65,0-1.34,0.57-2.06,1.72c-0.72,1.14-1.08,2.32-1.08,3.52v7.1h2.66v0.84H147.5z"/>
	<path class="st1" d="M94.65,18.65c0-0.59,0.21-1.1,0.63-1.51c0.42-0.41,0.92-0.61,1.52-0.61c0.59,0,1.09,0.21,1.51,0.63
		c0.42,0.42,0.63,0.92,0.63,1.49c0,0.59-0.21,1.1-0.63,1.53c-0.42,0.42-0.92,0.63-1.51,0.63c-0.6,0-1.1-0.21-1.52-0.63
		C94.86,19.75,94.65,19.24,94.65,18.65"/>
	<path class="st1" d="M93.04,38.08v-0.79h2.32V25.6h-2.18v-0.73h0.66c0.73,0,1.45-0.03,2.15-0.08c0.71-0.06,1.38-0.13,2.02-0.23
		v12.72h2v0.79H93.04z"/>
	<path class="st1" d="M83.26,38.08v-0.79h2.52V3.45h-2.59V2.76c0.91-0.02,1.81-0.06,2.7-0.12c0.89-0.06,1.77-0.13,2.66-0.23v34.87
		h2.59v0.79H83.26z"/>
	<path class="st1" d="M73.79,38.08v-0.79h2.52V3.45h-2.59V2.76c0.91-0.02,1.82-0.06,2.7-0.12c0.89-0.06,1.77-0.13,2.66-0.23v34.87
		h2.59v0.79H73.79z"/>
	<path class="st1" d="M64.6,38.08v-0.79h2.32V25.6h-2.18v-0.73h0.66c0.73,0,1.45-0.03,2.15-0.08c0.71-0.06,1.38-0.13,2.02-0.23
		v12.72h2v0.79H64.6z"/>
	<path class="st1" d="M108.68,24.74c1.84,0,3.51,0.75,4.72,1.95c1.21,1.21,1.95,2.87,1.95,4.72c0,1.84-0.75,3.51-1.95,4.72
		c-1.21,1.21-2.87,1.95-4.72,1.95c-1.84,0-3.51-0.75-4.72-1.95c-1.21-1.21-1.95-2.87-1.95-4.72c0-1.84,0.75-3.51,1.95-4.72
		C105.18,25.48,106.84,24.74,108.68,24.74 M112.34,27.75c-0.94-0.94-2.23-1.51-3.65-1.51c-1.43,0-2.72,0.58-3.65,1.51
		c-0.93,0.93-1.51,2.23-1.51,3.65c0,1.43,0.58,2.72,1.51,3.65c0.94,0.94,2.23,1.51,3.65,1.51c1.43,0,2.72-0.58,3.65-1.51
		c0.93-0.94,1.51-2.23,1.51-3.65C113.85,29.98,113.27,28.69,112.34,27.75z"/>
	<path class="st1" d="M39.39,38.07h-0.06v0.01h6.73v-0.79h-1.76v-5.57c0-1.71,0.39-3.17,1.18-4.39c0.78-1.22,1.68-1.83,2.71-1.83
		c0.66,0,1.13,0.16,1.42,0.47c0.29,0.32,0.43,0.84,0.43,1.56v9.76h-1.9v0.79h6.26v-0.79h-1.73v-6.5c0-1.41,0.4-2.64,1.2-3.7
		c0.81-1.06,1.73-1.59,2.78-1.59c0.59,0,1.03,0.17,1.32,0.51c0.29,0.34,0.44,0.85,0.44,1.52v9.76h-1.97v0.79h6.36v-0.79h-1.73v-8.54
		c0-1.38-0.31-2.42-0.94-3.12c-0.62-0.7-1.55-1.05-2.79-1.05c-1.07,0-1.99,0.28-2.77,0.85c-0.78,0.56-1.39,1.39-1.84,2.48
		c-0.06-1.06-0.41-1.88-1.05-2.46c-0.65-0.58-1.54-0.88-2.67-0.88c-1.03,0-1.91,0.27-2.67,0.82c-0.75,0.54-1.39,1.38-1.92,2.5
		l-0.01-3.32c-0.73,0.1-1.48,0.17-2.24,0.23c-0.76,0.05-1.52,0.08-2.29,0.08v0.73h1.83v11.68h-2.37v0.01h0.06V38.07z"/>
	<path class="st1" d="M135.24,38.08v-0.91h3.03V1.35c-0.15-0.01-0.32-0.02-0.48-0.03c-0.16-0.01-0.41-0.01-0.73-0.01
		c-1.69,0-2.95,0.43-3.78,1.29c-0.83,0.86-1.48,2.45-1.94,4.77h-0.8l0.32-6.93h18.5l0.27,6.93h-0.8c-0.32-2.2-0.93-3.76-1.82-4.68
		c-0.89-0.92-2.24-1.38-4.06-1.38c-0.31,0-0.54,0-0.68,0.01c-0.14,0-0.27,0.02-0.38,0.03l-0.02,35.82h2.97v0.91H135.24z"/>
	<path class="st1" d="M200.32,58.61l0.24-1.41h1.16l-0.24,1.41H200.32z M197.11,58.61l0.24-1.41h1.16l-0.24,1.41H197.11z
		 M193.91,58.61l0.24-1.41h1.16l-0.24,1.41H193.91z M191.68,54.91c-0.26,0.12-0.69,0.22-1.3,0.28c-0.62,0.06-1.05,0.15-1.29,0.25
		c-0.23,0.1-0.42,0.25-0.55,0.46c-0.13,0.21-0.2,0.44-0.2,0.71c0,0.37,0.1,0.66,0.31,0.88c0.21,0.21,0.49,0.32,0.83,0.32
		c0.33,0,0.65-0.1,0.95-0.3c0.3-0.2,0.55-0.49,0.75-0.87C191.38,56.25,191.55,55.68,191.68,54.91z M191.23,57.7
		c-0.37,0.39-0.72,0.67-1.05,0.82c-0.33,0.16-0.66,0.24-1,0.24c-0.53,0-0.97-0.19-1.32-0.57c-0.35-0.38-0.52-0.9-0.52-1.55
		c0-0.47,0.1-0.87,0.31-1.22c0.2-0.35,0.49-0.61,0.87-0.8c0.37-0.19,0.9-0.29,1.59-0.33c0.58-0.03,0.98-0.07,1.2-0.11
		c0.22-0.04,0.4-0.1,0.56-0.17c0.1-0.34,0.15-0.62,0.15-0.84c0-0.3-0.11-0.54-0.34-0.73c-0.23-0.18-0.56-0.27-1-0.27
		c-0.87,0-1.44,0.44-1.7,1.31l-1.04-0.1c0.45-1.49,1.38-2.24,2.81-2.24c0.7,0,1.26,0.18,1.67,0.55c0.41,0.37,0.62,0.83,0.62,1.39
		c0,0.38-0.05,0.83-0.16,1.35l-0.4,1.81c-0.13,0.57-0.19,1.04-0.19,1.39c0,0.25,0.04,0.57,0.12,0.97h-1.05
		C191.29,58.38,191.25,58.08,191.23,57.7z M182.03,55.38c0,0.54,0.06,0.97,0.17,1.28c0.11,0.31,0.27,0.54,0.47,0.7
		c0.2,0.16,0.41,0.24,0.64,0.24c0.3,0,0.61-0.13,0.91-0.38c0.31-0.25,0.58-0.68,0.8-1.27c0.22-0.59,0.34-1.2,0.34-1.82
		c0-0.61-0.13-1.09-0.41-1.44c-0.27-0.35-0.6-0.52-0.98-0.52c-0.31,0-0.61,0.14-0.91,0.42c-0.3,0.28-0.55,0.71-0.74,1.29
		C182.13,54.44,182.03,54.95,182.03,55.38z M180.75,59.27l1.03,0.1v0.17c0,0.32,0.09,0.56,0.27,0.73c0.18,0.16,0.46,0.24,0.84,0.24
		c0.59,0,1.02-0.18,1.3-0.54c0.19-0.26,0.37-0.85,0.52-1.75l0.09-0.6c-0.53,0.66-1.09,0.99-1.68,0.99c-0.59,0-1.09-0.27-1.5-0.8
		c-0.41-0.53-0.62-1.31-0.62-2.32c0-0.8,0.15-1.55,0.47-2.25c0.31-0.7,0.69-1.23,1.13-1.57c0.44-0.34,0.89-0.52,1.33-0.52
		c0.77,0,1.36,0.45,1.78,1.36l0.19-1.2h0.91l-1.09,7.04c-0.18,1.07-0.46,1.83-0.83,2.3c-0.46,0.59-1.09,0.88-1.89,0.88
		c-0.76,0-1.32-0.17-1.7-0.51c-0.38-0.34-0.56-0.8-0.56-1.39C180.72,59.54,180.73,59.41,180.75,59.27z M175.82,54.31h3.36v-0.25
		c0-0.65-0.13-1.13-0.38-1.46c-0.26-0.32-0.58-0.49-0.98-0.49c-0.43,0-0.83,0.18-1.19,0.55C176.27,53.02,176,53.57,175.82,54.31z
		 M178.78,56.12l1,0.13c-0.17,0.71-0.55,1.33-1.15,1.85c-0.5,0.44-1.06,0.67-1.68,0.67c-0.44,0-0.83-0.12-1.19-0.35
		c-0.36-0.23-0.64-0.59-0.86-1.06c-0.21-0.47-0.32-1.03-0.32-1.68c0-0.86,0.16-1.65,0.49-2.39c0.32-0.74,0.72-1.28,1.19-1.62
		c0.47-0.34,0.97-0.51,1.52-0.51c0.69,0,1.26,0.26,1.7,0.79c0.44,0.53,0.66,1.27,0.66,2.23c0,0.36-0.03,0.72-0.08,1.09h-4.41
		c-0.01,0.15-0.02,0.28-0.02,0.39c0,0.68,0.13,1.2,0.39,1.56c0.26,0.35,0.58,0.53,0.94,0.53c0.35,0,0.69-0.14,1.03-0.42
		C178.33,57.05,178.6,56.64,178.78,56.12z M168.23,61.42l0.06-1.17c0.21,0.08,0.42,0.11,0.61,0.11c0.21,0,0.37-0.05,0.49-0.16
		c0.18-0.16,0.36-0.44,0.55-0.86l0.3-0.66l-0.99-7.38h1.02l0.45,3.67c0.09,0.74,0.17,1.46,0.23,2.18l2.67-5.85h1.05l-3.79,8.27
		c-0.38,0.83-0.72,1.37-1.01,1.62c-0.29,0.25-0.61,0.37-0.96,0.37C168.69,61.57,168.46,61.52,168.23,61.42z M166.67,54.91
		c-0.26,0.12-0.69,0.22-1.3,0.28c-0.62,0.06-1.06,0.15-1.29,0.25c-0.23,0.1-0.42,0.25-0.55,0.46c-0.13,0.21-0.2,0.44-0.2,0.71
		c0,0.37,0.1,0.66,0.31,0.88c0.21,0.21,0.49,0.32,0.83,0.32c0.33,0,0.65-0.1,0.95-0.3c0.3-0.2,0.55-0.49,0.75-0.87
		C166.37,56.25,166.53,55.68,166.67,54.91z M166.22,57.7c-0.37,0.39-0.72,0.67-1.05,0.82c-0.33,0.16-0.66,0.24-1,0.24
		c-0.53,0-0.97-0.19-1.32-0.57c-0.35-0.38-0.53-0.9-0.53-1.55c0-0.47,0.1-0.87,0.31-1.22c0.2-0.35,0.49-0.61,0.87-0.8
		c0.37-0.19,0.9-0.29,1.59-0.33c0.58-0.03,0.98-0.07,1.2-0.11c0.22-0.04,0.4-0.1,0.56-0.17c0.1-0.34,0.15-0.62,0.15-0.84
		c0-0.3-0.11-0.54-0.34-0.73c-0.23-0.18-0.56-0.27-1-0.27c-0.87,0-1.44,0.44-1.7,1.31l-1.04-0.1c0.45-1.49,1.38-2.24,2.81-2.24
		c0.7,0,1.26,0.18,1.67,0.55c0.41,0.37,0.62,0.83,0.62,1.39c0,0.38-0.05,0.83-0.16,1.35l-0.4,1.81c-0.13,0.57-0.19,1.04-0.19,1.39
		c0,0.25,0.04,0.57,0.12,0.97h-1.05C166.28,58.38,166.24,58.08,166.22,57.7z M152.56,58.61l1.25-7.3h1.03l-0.21,1.21
		c0.4-0.54,0.75-0.91,1.06-1.09c0.3-0.19,0.62-0.28,0.96-0.28c0.37,0,0.69,0.12,0.94,0.35c0.26,0.23,0.43,0.57,0.51,1.02
		c0.3-0.46,0.62-0.8,0.96-1.03c0.34-0.23,0.69-0.34,1.06-0.34c0.47,0,0.84,0.14,1.1,0.42c0.26,0.28,0.39,0.69,0.39,1.22
		c0,0.23-0.05,0.61-0.15,1.12l-0.85,4.69h-1.03l0.87-4.82c0.07-0.39,0.11-0.68,0.11-0.85c0-0.24-0.07-0.43-0.19-0.56
		c-0.13-0.13-0.3-0.19-0.51-0.19c-0.28,0-0.58,0.1-0.89,0.31c-0.31,0.21-0.56,0.49-0.74,0.86c-0.19,0.36-0.35,0.94-0.5,1.73
		l-0.64,3.53h-1.03l0.88-4.93c0.06-0.33,0.09-0.57,0.09-0.72c0-0.24-0.06-0.43-0.19-0.57c-0.13-0.14-0.29-0.21-0.48-0.21
		c-0.46,0-0.89,0.23-1.3,0.69c-0.41,0.46-0.71,1.22-0.89,2.3l-0.6,3.44H152.56z M150.64,54.91c-0.26,0.12-0.69,0.22-1.3,0.28
		c-0.62,0.06-1.05,0.15-1.29,0.25c-0.23,0.1-0.42,0.25-0.55,0.46c-0.13,0.21-0.2,0.44-0.2,0.71c0,0.37,0.1,0.66,0.31,0.88
		c0.21,0.21,0.49,0.32,0.83,0.32c0.33,0,0.65-0.1,0.95-0.3c0.3-0.2,0.55-0.49,0.75-0.87C150.34,56.25,150.51,55.68,150.64,54.91z
		 M150.19,57.7c-0.37,0.39-0.72,0.67-1.05,0.82c-0.33,0.16-0.66,0.24-1,0.24c-0.53,0-0.97-0.19-1.32-0.57
		c-0.35-0.38-0.53-0.9-0.53-1.55c0-0.47,0.1-0.87,0.31-1.22c0.2-0.35,0.49-0.61,0.87-0.8c0.37-0.19,0.9-0.29,1.59-0.33
		c0.58-0.03,0.98-0.07,1.2-0.11c0.22-0.04,0.4-0.1,0.56-0.17c0.1-0.34,0.15-0.62,0.15-0.84c0-0.3-0.11-0.54-0.34-0.73
		c-0.23-0.18-0.56-0.27-1-0.27c-0.87,0-1.44,0.44-1.7,1.31l-1.04-0.1c0.45-1.49,1.38-2.24,2.81-2.24c0.7,0,1.26,0.18,1.67,0.55
		c0.41,0.37,0.62,0.83,0.62,1.39c0,0.38-0.05,0.83-0.16,1.35l-0.4,1.81c-0.13,0.57-0.19,1.04-0.19,1.39c0,0.25,0.04,0.57,0.12,0.97
		h-1.05C150.25,58.38,150.22,58.08,150.19,57.7z M140.4,58.61l1.73-10.07h1.03l-1.07,6.22l2.95-3.45h1.35l-2.56,2.72l1.54,4.58
		h-1.11l-1.2-3.75l-1.21,1.29l-0.42,2.46H140.4z M132.02,55.38c0,0.54,0.06,0.97,0.17,1.28c0.12,0.31,0.27,0.54,0.47,0.7
		c0.2,0.16,0.41,0.24,0.64,0.24c0.3,0,0.61-0.13,0.91-0.38c0.31-0.25,0.58-0.68,0.8-1.27c0.22-0.59,0.34-1.2,0.34-1.82
		c0-0.61-0.13-1.09-0.41-1.44c-0.27-0.35-0.6-0.52-0.98-0.52c-0.31,0-0.61,0.14-0.91,0.42c-0.3,0.28-0.55,0.71-0.74,1.29
		C132.11,54.44,132.02,54.95,132.02,55.38z M130.74,59.27l1.03,0.1v0.17c0,0.32,0.09,0.56,0.27,0.73c0.18,0.16,0.46,0.24,0.84,0.24
		c0.59,0,1.02-0.18,1.3-0.54c0.19-0.26,0.37-0.85,0.52-1.75l0.09-0.6c-0.53,0.66-1.09,0.99-1.68,0.99c-0.59,0-1.09-0.27-1.5-0.8
		c-0.41-0.53-0.62-1.31-0.62-2.32c0-0.8,0.15-1.55,0.47-2.25c0.31-0.7,0.69-1.23,1.13-1.57c0.44-0.34,0.89-0.52,1.33-0.52
		c0.77,0,1.36,0.45,1.78,1.36l0.19-1.2h0.91l-1.09,7.04c-0.18,1.07-0.46,1.83-0.83,2.3c-0.46,0.59-1.09,0.88-1.89,0.88
		c-0.76,0-1.32-0.17-1.7-0.51c-0.38-0.34-0.56-0.8-0.56-1.39C130.71,59.54,130.72,59.41,130.74,59.27z M128.84,54.91
		c-0.26,0.12-0.69,0.22-1.3,0.28c-0.62,0.06-1.05,0.15-1.29,0.25c-0.23,0.1-0.42,0.25-0.55,0.46c-0.13,0.21-0.2,0.44-0.2,0.71
		c0,0.37,0.1,0.66,0.31,0.88c0.21,0.21,0.49,0.32,0.83,0.32c0.33,0,0.65-0.1,0.95-0.3c0.3-0.2,0.55-0.49,0.75-0.87
		C128.54,56.25,128.7,55.68,128.84,54.91z M128.39,57.7c-0.37,0.39-0.72,0.67-1.05,0.82c-0.33,0.16-0.66,0.24-1,0.24
		c-0.53,0-0.97-0.19-1.32-0.57c-0.35-0.38-0.53-0.9-0.53-1.55c0-0.47,0.1-0.87,0.31-1.22c0.2-0.35,0.49-0.61,0.87-0.8
		c0.37-0.19,0.9-0.29,1.59-0.33c0.58-0.03,0.98-0.07,1.2-0.11c0.22-0.04,0.4-0.1,0.56-0.17c0.1-0.34,0.15-0.62,0.15-0.84
		c0-0.3-0.11-0.54-0.34-0.73c-0.23-0.18-0.56-0.27-1-0.27c-0.87,0-1.44,0.44-1.7,1.31l-1.04-0.1c0.45-1.49,1.38-2.24,2.81-2.24
		c0.7,0,1.26,0.18,1.67,0.55c0.41,0.37,0.62,0.83,0.62,1.39c0,0.38-0.05,0.83-0.16,1.35l-0.4,1.81c-0.13,0.57-0.19,1.04-0.19,1.39
		c0,0.25,0.04,0.57,0.12,0.97h-1.05C128.44,58.38,128.41,58.08,128.39,57.7z M122.42,54.91c-0.26,0.12-0.69,0.22-1.3,0.28
		c-0.62,0.06-1.06,0.15-1.29,0.25c-0.23,0.1-0.42,0.25-0.55,0.46c-0.13,0.21-0.2,0.44-0.2,0.71c0,0.37,0.1,0.66,0.31,0.88
		c0.21,0.21,0.49,0.32,0.83,0.32c0.33,0,0.65-0.1,0.95-0.3c0.3-0.2,0.55-0.49,0.75-0.87C122.12,56.25,122.29,55.68,122.42,54.91z
		 M121.97,57.7c-0.37,0.39-0.72,0.67-1.05,0.82c-0.33,0.16-0.66,0.24-1,0.24c-0.53,0-0.97-0.19-1.32-0.57
		c-0.35-0.38-0.52-0.9-0.52-1.55c0-0.47,0.1-0.87,0.31-1.22c0.2-0.35,0.49-0.61,0.87-0.8c0.37-0.19,0.9-0.29,1.59-0.33
		c0.58-0.03,0.98-0.07,1.2-0.11c0.22-0.04,0.4-0.1,0.56-0.17c0.1-0.34,0.15-0.62,0.15-0.84c0-0.3-0.11-0.54-0.34-0.73
		c-0.23-0.18-0.56-0.27-1-0.27c-0.87,0-1.44,0.44-1.7,1.31l-1.04-0.1c0.45-1.49,1.38-2.24,2.81-2.24c0.7,0,1.26,0.18,1.67,0.55
		c0.41,0.37,0.62,0.83,0.62,1.39c0,0.38-0.05,0.83-0.16,1.35l-0.4,1.81c-0.13,0.57-0.19,1.04-0.19,1.39c0,0.25,0.04,0.57,0.12,0.97
		h-1.05C122.03,58.38,121.99,58.08,121.97,57.7z M108.31,58.61l1.25-7.3h1.03l-0.21,1.21c0.4-0.54,0.75-0.91,1.05-1.09
		c0.3-0.19,0.62-0.28,0.96-0.28c0.37,0,0.69,0.12,0.95,0.35c0.26,0.23,0.43,0.57,0.51,1.02c0.3-0.46,0.62-0.8,0.96-1.03
		c0.34-0.23,0.69-0.34,1.06-0.34c0.47,0,0.84,0.14,1.1,0.42c0.26,0.28,0.39,0.69,0.39,1.22c0,0.23-0.05,0.61-0.15,1.12l-0.85,4.69
		h-1.03l0.87-4.82c0.07-0.39,0.11-0.68,0.11-0.85c0-0.24-0.07-0.43-0.19-0.56c-0.13-0.13-0.3-0.19-0.51-0.19
		c-0.28,0-0.58,0.1-0.89,0.31c-0.31,0.21-0.56,0.49-0.74,0.86c-0.19,0.36-0.35,0.94-0.5,1.73l-0.64,3.53h-1.03l0.88-4.93
		c0.06-0.33,0.09-0.57,0.09-0.72c0-0.24-0.06-0.43-0.19-0.57c-0.13-0.14-0.29-0.21-0.48-0.21c-0.46,0-0.89,0.23-1.3,0.69
		c-0.41,0.46-0.71,1.22-0.89,2.3l-0.6,3.44H108.31z M105.73,58.61l1.25-7.3h1.03l-1.25,7.3H105.73z M107.22,49.95l0.24-1.41h1.03
		l-0.24,1.41H107.22z M100.59,55.55l-0.01,0.3c0,0.6,0.14,1.09,0.42,1.48c0.22,0.3,0.5,0.45,0.86,0.45c0.46,0,0.89-0.29,1.27-0.88
		c0.5-0.78,0.75-1.74,0.75-2.87c0-0.58-0.13-1.03-0.39-1.36c-0.26-0.32-0.57-0.48-0.92-0.48c-0.35,0-0.67,0.15-0.98,0.46
		c-0.3,0.3-0.55,0.76-0.74,1.37C100.68,54.63,100.59,55.14,100.59,55.55z M103.39,57.54c-0.58,0.82-1.19,1.22-1.83,1.22
		c-0.55,0-1.02-0.25-1.4-0.75c-0.39-0.5-0.58-1.25-0.58-2.24c0-0.89,0.15-1.71,0.46-2.45c0.31-0.74,0.69-1.29,1.15-1.64
		c0.45-0.35,0.91-0.53,1.36-0.53c0.75,0,1.31,0.44,1.69,1.32l0.71-3.93h1.03l-1.8,10.07h-0.96L103.39,57.54z M91.26,55.6l-0.01,0.26
		c0,0.62,0.12,1.08,0.38,1.4c0.25,0.32,0.56,0.48,0.92,0.48c0.29,0,0.58-0.12,0.86-0.36c0.28-0.24,0.54-0.68,0.77-1.33
		c0.23-0.64,0.35-1.28,0.35-1.9c0-0.66-0.12-1.16-0.37-1.49c-0.24-0.34-0.55-0.5-0.92-0.5c-0.33,0-0.65,0.16-0.96,0.49
		c-0.31,0.32-0.57,0.86-0.79,1.6C91.34,54.79,91.26,55.24,91.26,55.6z M89.74,58.61l1.73-10.07h1.03l-0.62,3.6
		c0.33-0.37,0.63-0.63,0.89-0.77c0.26-0.14,0.53-0.22,0.8-0.22c0.55,0,1.02,0.25,1.4,0.74c0.38,0.5,0.57,1.24,0.57,2.23
		c0,0.91-0.15,1.73-0.46,2.47c-0.31,0.74-0.68,1.28-1.13,1.64c-0.45,0.35-0.89,0.53-1.33,0.53c-0.82,0-1.4-0.52-1.74-1.55l-0.24,1.4
		H89.74z M87.8,54.91c-0.26,0.12-0.69,0.22-1.3,0.28c-0.62,0.06-1.06,0.15-1.29,0.25c-0.23,0.1-0.42,0.25-0.55,0.46
		c-0.13,0.21-0.2,0.44-0.2,0.71c0,0.37,0.1,0.66,0.31,0.88c0.21,0.21,0.49,0.32,0.83,0.32c0.33,0,0.65-0.1,0.95-0.3
		c0.3-0.2,0.55-0.49,0.75-0.87C87.5,56.25,87.66,55.68,87.8,54.91z M87.35,57.7c-0.37,0.39-0.72,0.67-1.05,0.82
		c-0.33,0.16-0.66,0.24-1,0.24c-0.53,0-0.97-0.19-1.32-0.57c-0.35-0.38-0.53-0.9-0.53-1.55c0-0.47,0.1-0.87,0.31-1.22
		c0.2-0.35,0.49-0.61,0.87-0.8c0.37-0.19,0.9-0.29,1.59-0.33c0.58-0.03,0.98-0.07,1.2-0.11c0.22-0.04,0.4-0.1,0.56-0.17
		c0.1-0.34,0.15-0.62,0.15-0.84c0-0.3-0.11-0.54-0.34-0.73c-0.23-0.18-0.56-0.27-1-0.27c-0.87,0-1.44,0.44-1.7,1.31l-1.04-0.1
		c0.45-1.49,1.38-2.24,2.81-2.24c0.7,0,1.26,0.18,1.67,0.55c0.41,0.37,0.62,0.83,0.62,1.39c0,0.38-0.05,0.83-0.16,1.35l-0.4,1.81
		c-0.13,0.57-0.19,1.04-0.19,1.39c0,0.25,0.04,0.57,0.12,0.97h-1.05C87.41,58.38,87.37,58.08,87.35,57.7z"/>
	<path class="st1" d="M6.97,16.37c3.85,0,6.97,3.12,6.97,6.97c0,3.85-3.12,6.97-6.97,6.97C3.12,30.32,0,27.2,0,23.35
		C0,19.49,3.12,16.37,6.97,16.37 M23.81,16.37c-3.85,0-6.97,3.12-6.97,6.97c0,3.85,3.12,6.97,6.97,6.97c3.85,0,6.97-3.12,6.97-6.97
		C30.78,19.49,27.66,16.37,23.81,16.37z M16.89,37.56c1.95,0.06,4.32,0.24,5.83,0.52H8.06c1.51-0.28,3.88-0.45,5.83-0.52l1.5-17.68
		L16.89,37.56z M15.39,16.37c-3.85,0-6.97-3.12-6.97-6.97c0-3.85,3.12-6.97,6.97-6.97c3.85,0,6.97,3.12,6.97,6.97
		C22.36,13.25,19.24,16.37,15.39,16.37z"/>
	<path class="st2" d="M193.3,1.85c-0.61-0.61-1.45-0.98-2.37-0.98c-0.93,0-1.76,0.38-2.37,0.98c-0.61,0.61-0.98,1.45-0.98,2.37
		c0,0.93,0.38,1.76,0.98,2.37c0.61,0.61,1.45,0.98,2.37,0.98c0.93,0,1.76-0.38,2.37-0.98c0.61-0.61,0.98-1.45,0.98-2.37
		C194.28,3.29,193.91,2.45,193.3,1.85 M190.93,0.43c1.04,0,1.99,0.42,2.68,1.11c0.68,0.68,1.11,1.63,1.11,2.68
		c0,1.04-0.42,1.99-1.11,2.68C192.92,7.58,191.98,8,190.93,8c-1.04,0-1.99-0.42-2.68-1.11c-0.68-0.68-1.11-1.63-1.11-2.68
		c0-1.04,0.42-1.99,1.11-2.68C188.94,0.86,189.89,0.43,190.93,0.43z"/>
	<path class="st2" d="M190.09,3.99h1.09c0.23,0,0.41-0.02,0.54-0.07c0.13-0.05,0.23-0.12,0.3-0.23c0.07-0.11,0.1-0.22,0.1-0.34
		c0-0.18-0.07-0.33-0.2-0.45c-0.13-0.12-0.34-0.18-0.62-0.18h-1.22V3.99z M189.58,6.14V2.3h1.7c0.34,0,0.6,0.03,0.78,0.1
		c0.18,0.07,0.32,0.19,0.43,0.37c0.11,0.17,0.16,0.37,0.16,0.58c0,0.27-0.09,0.5-0.26,0.69c-0.18,0.19-0.45,0.31-0.82,0.36
		c0.14,0.06,0.24,0.13,0.31,0.19c0.15,0.14,0.29,0.31,0.42,0.51l0.66,1.05h-0.64l-0.51-0.8c-0.15-0.23-0.27-0.41-0.37-0.53
		c-0.1-0.12-0.18-0.21-0.26-0.26c-0.08-0.05-0.15-0.08-0.23-0.1c-0.06-0.01-0.15-0.02-0.28-0.02h-0.59v1.71H189.58z"/>
</g>
</svg>
