<svg width="369" height="62" viewBox="0 0 369 62" fill="none" xmlns="http://www.w3.org/2000/svg">
<path fill-rule="evenodd" clip-rule="evenodd" d="M198.978 32.3664V33.5445C198.978 36.2228 199.324 38.0934 200.016 39.1512C200.704 40.2091 201.906 40.7429 203.604 40.7429C205.041 40.7429 206.263 40.3582 207.272 39.584C208.277 38.8146 208.965 37.7279 209.335 36.3334H210.225C209.826 38.1366 209.037 39.4926 207.845 40.3966C206.652 41.3055 205.07 41.7575 203.103 41.7575C200.877 41.7575 199.002 41.0073 197.482 39.5167C195.963 38.0212 195.208 36.1844 195.208 34.0109C195.208 31.6307 195.982 29.6111 197.535 27.9618C199.079 26.3076 200.978 25.4854 203.224 25.4854C205.32 25.4854 206.974 26.072 208.191 27.2549C209.407 28.4378 210.114 30.14 210.311 32.3712H198.978V32.3664ZM199.098 31.2316H206.667V30.8325C206.667 29.1975 206.388 28.0243 205.844 27.2982C205.296 26.5769 204.416 26.2114 203.185 26.2114C201.925 26.2114 200.954 26.6298 200.271 27.4665C199.588 28.3032 199.199 29.5582 199.098 31.2316Z" fill="white"/>
<path fill-rule="evenodd" clip-rule="evenodd" d="M181.244 32.3664V33.5445C181.244 36.2228 181.59 38.0934 182.282 39.1512C182.97 40.2091 184.172 40.7429 185.87 40.7429C187.307 40.7429 188.529 40.3582 189.539 39.584C190.544 38.8146 191.231 37.7279 191.601 36.3334H192.491C192.092 38.1366 191.303 39.4926 190.111 40.3966C188.918 41.3055 187.336 41.7575 185.37 41.7575C183.143 41.7575 181.268 41.0073 179.748 39.5167C178.229 38.0212 177.474 36.1844 177.474 34.0109C177.474 31.6307 178.248 29.6111 179.801 27.9618C181.345 26.3076 183.244 25.4854 185.49 25.4854C187.586 25.4854 189.24 26.072 190.457 27.2549C191.669 28.4378 192.38 30.14 192.578 32.3712H181.244V32.3664ZM181.369 31.2316H188.938V30.8325C188.938 29.1975 188.659 28.0243 188.115 27.2982C187.567 26.5769 186.687 26.2114 185.456 26.2114C184.196 26.2114 183.225 26.6298 182.542 27.4665C181.859 28.3032 181.47 29.5582 181.369 31.2316Z" fill="white"/>
<path fill-rule="evenodd" clip-rule="evenodd" d="M75.6337 12.8101C77.9707 12.8101 79.8604 14.7046 79.8604 17.0368C79.8604 19.3737 77.9659 21.2635 75.6337 21.2635C73.2967 21.2635 71.407 19.3689 71.407 17.0368C71.407 14.7046 73.2967 12.8101 75.6337 12.8101Z" fill="white"/>
<path fill-rule="evenodd" clip-rule="evenodd" d="M130.071 41.7575V40.8775H132.105V27.9185H130.033V27.1155H130.725C131.499 27.1155 132.245 27.0818 132.966 27.0241C133.687 26.9616 134.365 26.8751 135 26.7693L135.019 31.0248C135.567 29.6207 136.322 28.5581 137.279 27.8416C138.231 27.1251 139.371 26.7693 140.698 26.7693C142.035 26.7693 143.074 27.1251 143.824 27.8368C144.569 28.5436 144.949 29.5438 144.949 30.8229V40.8823H146.944V41.7623H139.852V40.8823H142.035V30.7075C142.035 29.741 141.843 29.0341 141.453 28.5677C141.064 28.1061 140.462 27.8801 139.65 27.8801C138.414 27.8801 137.342 28.5004 136.443 29.7313C135.543 30.9719 135.096 32.4722 135.096 34.2514V40.8775H137.13V41.7575H130.071Z" fill="white"/>
<path fill-rule="evenodd" clip-rule="evenodd" d="M163.63 41.7575V40.8246H166.304V27.1443H163.712V26.2932C164.751 26.2932 165.756 26.2595 166.712 26.1922C167.679 26.1249 168.573 26.0383 169.42 25.9277V29.8563C170.083 28.5676 170.809 27.6011 171.598 26.9664C172.386 26.3268 173.238 26.0095 174.146 26.0095C174.897 26.0095 175.469 26.1826 175.868 26.5432C176.267 26.8943 176.459 27.4088 176.459 28.082C176.459 28.5821 176.305 28.9812 175.993 29.2841C175.68 29.587 175.272 29.7361 174.757 29.7361C174.3 29.7361 173.901 29.5726 173.565 29.2456C173.228 28.9138 173.06 28.5244 173.06 28.0772C173.06 27.9714 173.074 27.8463 173.098 27.6973C173.127 27.5578 173.137 27.4617 173.137 27.4184C173.137 27.3126 173.122 27.2453 173.098 27.202C173.069 27.1635 173.031 27.1395 172.978 27.1395C172.257 27.1395 171.492 27.7742 170.689 29.0437C169.891 30.3131 169.497 31.6162 169.497 32.9434V40.8246H172.454V41.7575H163.63Z" fill="white"/>
<path fill-rule="evenodd" clip-rule="evenodd" d="M105 20.2056C105 19.5517 105.23 18.9891 105.697 18.5323C106.158 18.0754 106.721 17.8542 107.385 17.8542C108.039 17.8542 108.591 18.0851 109.058 18.5515C109.52 19.0131 109.755 19.5661 109.755 20.2056C109.755 20.8596 109.524 21.4318 109.058 21.903C108.596 22.3743 108.043 22.6051 107.385 22.6051C106.721 22.6051 106.158 22.3743 105.697 21.903C105.23 21.4318 105 20.8596 105 20.2056Z" fill="white"/>
<path fill-rule="evenodd" clip-rule="evenodd" d="M103.216 41.7575V40.8776H105.783V27.9185H103.369V27.1155H104.105C104.913 27.1155 105.711 27.0818 106.495 27.0241C107.284 26.9616 108.029 26.8751 108.736 26.7693V40.8776H110.962V41.7575H103.216Z" fill="white"/>
<path fill-rule="evenodd" clip-rule="evenodd" d="M92.3675 41.7574V40.8775H95.166V3.34675H92.2905V2.58219C93.3003 2.55815 94.3053 2.51968 95.2863 2.45236C96.2768 2.38985 97.2529 2.3033 98.2339 2.19751V40.8726H101.109V41.7526H92.3675V41.7574Z" fill="white"/>
<path fill-rule="evenodd" clip-rule="evenodd" d="M81.8609 41.7574V40.8775H84.6594V3.34675H81.7839V2.58219C82.7937 2.55815 83.7987 2.51968 84.7796 2.45236C85.7702 2.38985 86.7463 2.3033 87.7273 2.19751V40.8726H90.6028V41.7526H81.8609V41.7574Z" fill="white"/>
<path fill-rule="evenodd" clip-rule="evenodd" d="M71.6665 41.7575V40.8776H74.2343V27.9185H71.8204V27.1155H72.5561C73.3639 27.1155 74.1621 27.0818 74.9459 27.0241C75.7345 26.9616 76.4799 26.8751 77.1867 26.7693V40.8776H79.4131V41.7575H71.6665Z" fill="white"/>
<path fill-rule="evenodd" clip-rule="evenodd" d="M120.565 26.9614C122.608 26.9614 124.455 27.7885 125.796 29.1301C127.133 30.4669 127.965 32.3181 127.965 34.3618C127.965 36.4054 127.138 38.2519 125.796 39.5935C124.46 40.9302 122.608 41.7621 120.565 41.7621C118.521 41.7621 116.67 40.935 115.333 39.5935C113.996 38.2567 113.164 36.4054 113.164 34.3618C113.164 32.3181 113.991 30.4669 115.333 29.1301C116.675 27.7885 118.521 26.9614 120.565 26.9614ZM124.618 30.3034C123.58 29.2647 122.147 28.6252 120.565 28.6252C118.983 28.6252 117.55 29.2647 116.511 30.3034C115.472 31.342 114.833 32.775 114.833 34.357C114.833 35.939 115.472 37.3719 116.511 38.4106C117.55 39.4492 118.983 40.0887 120.565 40.0887C122.147 40.0887 123.58 39.4492 124.618 38.4106C125.657 37.3719 126.296 35.939 126.296 34.357C126.296 32.775 125.657 31.342 124.618 30.3034Z" fill="white"/>
<path fill-rule="evenodd" clip-rule="evenodd" d="M43.6953 41.7527H43.6232V41.7575H51.0861V40.8776H49.129V34.6986C49.129 32.7992 49.5618 31.1787 50.4321 29.8275C51.2929 28.4811 52.2978 27.8031 53.4375 27.8031C54.1732 27.8031 54.6973 27.9762 55.0147 28.3273C55.332 28.6783 55.4955 29.2553 55.4955 30.0535V40.8776H53.3846V41.7575H60.3233V40.8776H58.4047V33.6696C58.4047 32.102 58.8519 30.7363 59.7415 29.5679C60.6359 28.3898 61.6649 27.8031 62.8238 27.8031C63.4729 27.8031 63.9586 27.9907 64.2856 28.3657C64.6125 28.7408 64.7712 29.3034 64.7712 30.0535V40.8776H62.5881V41.7575H69.6423V40.8776H67.7237V31.3999C67.7237 29.866 67.3774 28.7167 66.6802 27.9378C65.9878 27.1588 64.9588 26.7693 63.5883 26.7693C62.4054 26.7693 61.3764 27.0818 60.5205 27.7166C59.6597 28.3417 58.9817 29.2649 58.4816 30.4719C58.4191 29.2938 58.0296 28.3898 57.3132 27.7406C56.5919 27.0963 55.6061 26.7693 54.3463 26.7693C53.2067 26.7693 52.2257 27.0722 51.389 27.6781C50.5523 28.2792 49.8407 29.2072 49.254 30.4526L49.2396 26.7693C48.427 26.8799 47.5951 26.9616 46.7536 27.0241C45.9121 27.0818 45.0658 27.1155 44.2147 27.1155V27.9185H46.2487V40.8776H43.6184V40.8824H43.6905V41.7527H43.6953Z" fill="white"/>
<path fill-rule="evenodd" clip-rule="evenodd" d="M150.027 41.7575V40.7477H153.388V1.01468C153.22 1.00025 153.037 0.985826 152.854 0.981018C152.671 0.976209 152.397 0.976209 152.046 0.976209C150.171 0.976209 148.767 1.45225 147.848 2.40916C146.93 3.36125 146.209 5.12598 145.694 7.69856H144.805L145.161 0.00488281H165.679L165.977 7.69856H165.087C164.731 5.26062 164.058 3.52955 163.068 2.51013C162.082 1.49553 160.577 0.976209 158.562 0.976209C158.216 0.976209 157.966 0.976209 157.812 0.981018C157.653 0.985826 157.514 1.00025 157.393 1.01468L157.374 40.7477H160.673V41.7575H150.027V41.7575Z" fill="white"/>
<path fill-rule="evenodd" clip-rule="evenodd" d="M7.73696 17.6809C12.0069 17.6809 15.4739 21.1431 15.4739 25.4179C15.4739 29.6879 12.0118 33.1548 7.73696 33.1548C3.46216 33.1548 0 29.6879 0 25.4179C0 21.1431 3.46216 17.6809 7.73696 17.6809ZM26.4134 17.6809C22.1434 17.6809 18.6764 21.1431 18.6764 25.4179C18.6764 29.6879 22.1386 33.1548 26.4134 33.1548C30.6834 33.1548 34.1503 29.6927 34.1503 25.4179C34.1455 21.1431 30.6834 17.6809 26.4134 17.6809ZM18.7389 41.1851C20.898 41.2572 23.533 41.4496 25.2064 41.7573H8.9439C10.6173 41.4496 13.2524 41.2524 15.4114 41.1851L17.0752 21.5662L18.7389 41.1851ZM17.0752 17.6809C12.8052 17.6809 9.3382 14.2188 9.3382 9.94398C9.3382 5.67399 12.8004 2.20703 17.0752 2.20703C21.35 2.20703 24.8121 5.66918 24.8121 9.94398C24.8073 14.2188 21.3451 17.6809 17.0752 17.6809Z" fill="white"/>
<path d="M214.432 1.56759C213.759 0.89439 212.831 0.476046 211.802 0.476046C210.773 0.476046 209.845 0.89439 209.172 1.56759C208.499 2.24078 208.08 3.16883 208.08 4.19786C208.08 5.22689 208.499 6.15494 209.172 6.82813C209.845 7.50133 210.773 7.91967 211.802 7.91967C212.831 7.91967 213.759 7.50133 214.432 6.82813C215.106 6.15494 215.524 5.22689 215.524 4.19786C215.524 3.16883 215.106 2.24078 214.432 1.56759ZM211.802 0C212.961 0 214.009 0.471237 214.769 1.23099C215.529 1.99074 216 3.039 216 4.19786C216 5.35672 215.529 6.40498 214.769 7.16473C214.009 7.92448 212.961 8.39572 211.802 8.39572C210.643 8.39572 209.595 7.92448 208.835 7.16473C208.075 6.40498 207.604 5.35672 207.604 4.19786C207.604 3.039 208.075 1.99074 208.835 1.23099C209.595 0.471237 210.643 0 211.802 0Z" fill="white"/>
<path d="M210.874 3.94777H212.086C212.345 3.94777 212.543 3.91892 212.692 3.86602C212.836 3.81313 212.947 3.72658 213.023 3.61117C213.1 3.49577 213.139 3.36593 213.139 3.23129C213.139 3.02934 213.067 2.86104 212.922 2.73121C212.778 2.60138 212.547 2.53886 212.23 2.53886H210.884V3.94777H210.874ZM210.312 6.328V2.06763H212.201C212.581 2.06763 212.87 2.1061 213.067 2.18303C213.264 2.25997 213.423 2.39461 213.538 2.58695C213.658 2.77929 213.716 2.99568 213.716 3.23129C213.716 3.53423 213.62 3.78909 213.423 3.99585C213.225 4.20262 212.927 4.33245 212.514 4.39015C212.663 4.46228 212.778 4.53441 212.855 4.60173C213.019 4.7508 213.177 4.94314 213.322 5.16914L214.057 6.33281H213.35L212.788 5.44323C212.624 5.18837 212.49 4.99122 212.384 4.85658C212.278 4.72194 212.182 4.62577 212.095 4.57288C212.014 4.51999 211.927 4.48152 211.841 4.45747C211.778 4.44305 211.672 4.43824 211.528 4.43824H210.874V6.33281H210.312V6.328Z" fill="white"/>
<path fill-rule="evenodd" clip-rule="evenodd" d="M367.325 41.3058L367.609 39.587H369L368.709 41.3058H367.325ZM363.473 41.3058L363.757 39.587H365.148L364.857 41.3058H363.473ZM359.621 41.3058L359.905 39.587H361.296L361.005 41.3058H359.621ZM356.956 36.7865C356.65 36.9347 356.126 37.0532 355.391 37.1273C354.641 37.2014 354.124 37.3051 353.847 37.4311C353.563 37.557 353.344 37.7422 353.191 37.9941C353.031 38.246 352.958 38.5349 352.958 38.8683C352.958 39.3203 353.082 39.6759 353.33 39.9426C353.577 40.2019 353.912 40.3352 354.327 40.3352C354.728 40.3352 355.107 40.2093 355.471 39.9648C355.835 39.7203 356.133 39.3647 356.366 38.898C356.592 38.4238 356.789 37.7274 356.956 36.7865ZM356.41 40.1945C355.966 40.676 355.543 41.0094 355.143 41.2021C354.742 41.3947 354.349 41.491 353.941 41.491C353.308 41.491 352.776 41.2613 352.361 40.7946C351.939 40.3278 351.728 39.6981 351.728 38.9054C351.728 38.3349 351.852 37.8385 352.099 37.4162C352.347 36.9939 352.689 36.668 353.141 36.4457C353.585 36.216 354.225 36.0901 355.056 36.0456C355.755 36.0086 356.235 35.9567 356.497 35.9123C356.76 35.8604 356.978 35.7937 357.167 35.6974C357.284 35.2751 357.342 34.9343 357.342 34.6676C357.342 34.2972 357.204 34.0008 356.927 33.7786C356.65 33.5563 356.257 33.4452 355.733 33.4452C354.684 33.4452 354 33.9786 353.687 35.0455L352.434 34.9269C352.966 33.1044 354.094 32.1931 355.806 32.1931C356.65 32.1931 357.32 32.4154 357.815 32.8673C358.311 33.3192 358.558 33.8823 358.558 34.5639C358.558 35.0306 358.493 35.5789 358.361 36.2086L357.881 38.4164C357.728 39.1202 357.655 39.6833 357.655 40.1204C357.655 40.4241 357.706 40.8168 357.794 41.3058H356.534C356.483 41.0243 356.439 40.6538 356.41 40.1945ZM345.364 37.3496C345.364 38.0163 345.429 38.5349 345.568 38.9054C345.706 39.2832 345.895 39.5647 346.128 39.7574C346.369 39.95 346.623 40.0463 346.893 40.0463C347.257 40.0463 347.621 39.8907 347.985 39.5796C348.356 39.2684 348.677 38.7498 348.946 38.0312C349.216 37.3051 349.347 36.5642 349.347 35.8086C349.347 35.0603 349.187 34.475 348.859 34.0527C348.538 33.6304 348.145 33.4156 347.687 33.4156C347.315 33.4156 346.951 33.586 346.587 33.9342C346.223 34.275 345.932 34.801 345.699 35.5122C345.48 36.2086 345.364 36.8235 345.364 37.3496ZM343.827 42.1133L345.058 42.2319V42.4393C345.058 42.832 345.167 43.1283 345.378 43.3283C345.589 43.5284 345.924 43.6247 346.383 43.6247C347.089 43.6247 347.614 43.4024 347.941 42.9579C348.174 42.6319 348.378 41.9207 348.568 40.8242L348.677 40.0908C348.043 40.8983 347.366 41.3058 346.653 41.3058C345.946 41.3058 345.342 40.9798 344.847 40.3278C344.352 39.6759 344.104 38.735 344.104 37.4977C344.104 36.5272 344.286 35.6085 344.665 34.7491C345.036 33.8897 345.495 33.2452 346.026 32.8303C346.558 32.408 347.089 32.2005 347.628 32.2005C348.546 32.2005 349.259 32.7562 349.762 33.8527L349.988 32.3858H351.08L349.762 40.9872C349.543 42.2911 349.216 43.2246 348.771 43.8025C348.211 44.5211 347.454 44.8768 346.5 44.8768C345.589 44.8768 344.912 44.6693 344.461 44.2618C344.009 43.847 343.784 43.2839 343.784 42.5653C343.798 42.4319 343.805 42.2837 343.827 42.1133ZM337.907 36.0456H341.941V35.7345C341.941 34.9417 341.788 34.349 341.483 33.9564C341.169 33.5637 340.783 33.3637 340.303 33.3637C339.786 33.3637 339.313 33.586 338.876 34.0305C338.439 34.4824 338.118 35.1492 337.907 36.0456ZM341.468 38.2608L342.669 38.4164C342.473 39.2832 342.014 40.0389 341.286 40.676C340.682 41.2169 340.012 41.491 339.276 41.491C338.752 41.491 338.279 41.3502 337.849 41.0613C337.419 40.7724 337.077 40.3427 336.822 39.7722C336.567 39.2017 336.444 38.5201 336.444 37.7274C336.444 36.6828 336.64 35.7048 337.026 34.801C337.412 33.8971 337.885 33.2377 338.453 32.8229C339.014 32.408 339.618 32.2005 340.274 32.2005C341.104 32.2005 341.781 32.5191 342.305 33.1637C342.83 33.8082 343.092 34.7121 343.092 35.8826C343.092 36.3198 343.063 36.7643 343.004 37.2236H337.718C337.703 37.4014 337.696 37.5644 337.696 37.6978C337.696 38.5349 337.856 39.1647 338.169 39.6018C338.482 40.0315 338.861 40.2463 339.298 40.2463C339.72 40.2463 340.128 40.0759 340.536 39.7351C340.922 39.3943 341.242 38.898 341.468 38.2608ZM328.798 44.7434L328.871 43.3135C329.126 43.4024 329.366 43.4543 329.606 43.4543C329.854 43.4543 330.05 43.3876 330.203 43.2543C330.414 43.0616 330.633 42.7134 330.866 42.2022L331.223 41.4021L330.036 32.3858H331.259L331.805 36.8754C331.914 37.7719 332.009 38.6609 332.089 39.5351L335.293 32.3858H336.553L331.994 42.4912C331.536 43.5062 331.135 44.1655 330.786 44.4619C330.436 44.7656 330.058 44.9138 329.635 44.9138C329.344 44.9138 329.067 44.8545 328.798 44.7434ZM326.919 36.7865C326.613 36.9347 326.089 37.0532 325.354 37.1273C324.604 37.2014 324.087 37.3051 323.81 37.4311C323.526 37.557 323.307 37.7422 323.155 37.9941C322.994 38.246 322.922 38.5349 322.922 38.8683C322.922 39.3203 323.045 39.6759 323.293 39.9426C323.54 40.2019 323.875 40.3352 324.29 40.3352C324.691 40.3352 325.07 40.2093 325.434 39.9648C325.798 39.7203 326.096 39.3647 326.329 38.898C326.562 38.4238 326.759 37.7274 326.919 36.7865ZM326.38 40.1945C325.936 40.676 325.514 41.0094 325.113 41.2021C324.713 41.3947 324.32 41.491 323.912 41.491C323.278 41.491 322.747 41.2613 322.332 40.7946C321.909 40.3278 321.698 39.6981 321.698 38.9054C321.698 38.3349 321.822 37.8385 322.07 37.4162C322.317 36.9939 322.659 36.668 323.111 36.4457C323.555 36.216 324.196 36.0901 325.026 36.0456C325.725 36.0086 326.206 35.9567 326.468 35.9123C326.73 35.8604 326.948 35.7937 327.138 35.6974C327.254 35.2751 327.312 34.9343 327.312 34.6676C327.312 34.2972 327.174 34.0008 326.897 33.7786C326.621 33.5563 326.227 33.4452 325.703 33.4452C324.655 33.4452 323.97 33.9786 323.657 35.0455L322.405 34.9269C322.936 33.1044 324.065 32.1931 325.776 32.1931C326.621 32.1931 327.291 32.4154 327.786 32.8673C328.281 33.3192 328.528 33.8823 328.528 34.5639C328.528 35.0306 328.463 35.5789 328.332 36.2086L327.851 38.4164C327.698 39.1202 327.625 39.6833 327.625 40.1204C327.625 40.4241 327.676 40.8168 327.764 41.3058H326.504C326.446 41.0243 326.402 40.6538 326.38 40.1945ZM309.975 41.3058L311.482 32.3858H312.713L312.465 33.8675C312.946 33.2081 313.368 32.7636 313.732 32.5339C314.096 32.3043 314.482 32.1931 314.89 32.1931C315.334 32.1931 315.713 32.3339 316.026 32.6228C316.332 32.9118 316.536 33.3192 316.637 33.8675C317.002 33.3118 317.387 32.8895 317.795 32.608C318.203 32.3265 318.625 32.1931 319.077 32.1931C319.645 32.1931 320.082 32.3635 320.402 32.7043C320.715 33.0451 320.875 33.5415 320.875 34.1935C320.875 34.475 320.817 34.9343 320.701 35.5641L319.674 41.2984H318.443L319.485 35.4085C319.572 34.9269 319.616 34.5787 319.616 34.3713C319.616 34.0749 319.536 33.8453 319.383 33.6897C319.23 33.5341 319.026 33.4526 318.764 33.4526C318.429 33.4526 318.065 33.5785 317.693 33.8304C317.322 34.0823 317.023 34.438 316.798 34.8825C316.572 35.327 316.375 36.0308 316.201 36.9865L315.429 41.3058H314.198L315.254 35.2899C315.327 34.8825 315.37 34.5861 315.37 34.4083C315.37 34.112 315.298 33.8823 315.137 33.7119C314.985 33.5415 314.795 33.4526 314.569 33.4526C314.023 33.4526 313.499 33.7341 313.004 34.2972C312.509 34.8603 312.152 35.7937 311.933 37.0977L311.213 41.3058H309.975V41.3058ZM307.681 36.7865C307.375 36.9347 306.851 37.0532 306.115 37.1273C305.365 37.2014 304.848 37.3051 304.572 37.4311C304.288 37.557 304.069 37.7422 303.916 37.9941C303.756 38.246 303.676 38.5349 303.676 38.8683C303.676 39.3203 303.8 39.6759 304.047 39.9426C304.295 40.2019 304.63 40.3352 305.045 40.3352C305.446 40.3352 305.824 40.2093 306.188 39.9648C306.552 39.7203 306.851 39.3647 307.084 38.898C307.317 38.4238 307.514 37.7274 307.681 36.7865ZM307.142 40.1945C306.698 40.676 306.276 41.0094 305.875 41.2021C305.475 41.3947 305.081 41.491 304.674 41.491C304.04 41.491 303.509 41.2613 303.094 40.7946C302.671 40.3278 302.46 39.6981 302.46 38.9054C302.46 38.3349 302.584 37.8385 302.831 37.4162C303.079 36.9939 303.421 36.668 303.873 36.4457C304.317 36.216 304.958 36.0901 305.788 36.0456C306.487 36.0086 306.967 35.9567 307.23 35.9123C307.492 35.8604 307.71 35.7937 307.899 35.6974C308.016 35.2751 308.074 34.9343 308.074 34.6676C308.074 34.2972 307.936 34.0008 307.659 33.7786C307.382 33.5563 306.989 33.4452 306.465 33.4452C305.416 33.4452 304.732 33.9786 304.419 35.0455L303.166 34.9269C303.698 33.1044 304.827 32.1931 306.538 32.1931C307.382 32.1931 308.052 32.4154 308.548 32.8673C309.043 33.3192 309.29 33.8823 309.29 34.5639C309.29 35.0306 309.225 35.5789 309.094 36.2086L308.613 38.4164C308.46 39.1202 308.387 39.6833 308.387 40.1204C308.387 40.4241 308.438 40.8168 308.526 41.3058H307.266C307.208 41.0243 307.164 40.6538 307.142 40.1945ZM295.382 41.3058L297.458 29H298.688L297.407 36.6013L300.953 32.3858H302.577L299.511 35.7122L301.361 41.3058H300.028L298.586 36.7198L297.13 38.2979L296.62 41.3058H295.382ZM285.312 37.3496C285.312 38.0163 285.377 38.5349 285.516 38.9054C285.654 39.2832 285.843 39.5647 286.076 39.7574C286.317 39.95 286.571 40.0463 286.841 40.0463C287.205 40.0463 287.569 39.8907 287.933 39.5796C288.304 39.2684 288.625 38.7498 288.894 38.0312C289.164 37.3051 289.295 36.5642 289.295 35.8086C289.295 35.0603 289.135 34.475 288.807 34.0527C288.486 33.6304 288.093 33.4156 287.635 33.4156C287.263 33.4156 286.899 33.586 286.535 33.9342C286.171 34.275 285.88 34.801 285.647 35.5122C285.428 36.2086 285.312 36.8235 285.312 37.3496ZM283.775 42.1133L285.006 42.2319V42.4393C285.006 42.832 285.115 43.1283 285.326 43.3283C285.537 43.5284 285.872 43.6247 286.331 43.6247C287.037 43.6247 287.562 43.4024 287.889 42.9579C288.122 42.6319 288.326 41.9207 288.516 40.8242L288.625 40.0908C287.991 40.8983 287.314 41.3058 286.601 41.3058C285.894 41.3058 285.29 40.9798 284.795 40.3278C284.3 39.6759 284.052 38.735 284.052 37.4977C284.052 36.5272 284.234 35.6085 284.613 34.7491C284.984 33.8897 285.443 33.2452 285.974 32.8303C286.506 32.408 287.037 32.2005 287.576 32.2005C288.494 32.2005 289.207 32.7562 289.71 33.8527L289.936 32.3858H291.028L289.71 40.9872C289.491 42.2911 289.164 43.2246 288.719 43.8025C288.159 44.5211 287.402 44.8768 286.448 44.8768C285.537 44.8768 284.86 44.6693 284.409 44.2618C283.957 43.847 283.732 43.2839 283.732 42.5653C283.746 42.4319 283.753 42.2837 283.775 42.1133ZM281.496 36.7865C281.19 36.9347 280.666 37.0532 279.931 37.1273C279.18 37.2014 278.663 37.3051 278.387 37.4311C278.103 37.557 277.884 37.7422 277.731 37.9941C277.571 38.246 277.491 38.5349 277.491 38.8683C277.491 39.3203 277.615 39.6759 277.863 39.9426C278.11 40.2019 278.445 40.3352 278.86 40.3352C279.261 40.3352 279.639 40.2093 280.003 39.9648C280.367 39.7203 280.666 39.3647 280.899 38.898C281.139 38.4238 281.336 37.7274 281.496 36.7865ZM280.957 40.1945C280.513 40.676 280.091 41.0094 279.69 41.2021C279.29 41.3947 278.897 41.491 278.489 41.491C277.855 41.491 277.324 41.2613 276.909 40.7946C276.486 40.3278 276.275 39.6981 276.275 38.9054C276.275 38.3349 276.399 37.8385 276.646 37.4162C276.894 36.9939 277.236 36.668 277.688 36.4457C278.132 36.216 278.773 36.0901 279.603 36.0456C280.302 36.0086 280.782 35.9567 281.045 35.9123C281.307 35.8604 281.525 35.7937 281.715 35.6974C281.831 35.2751 281.889 34.9343 281.889 34.6676C281.889 34.2972 281.751 34.0008 281.474 33.7786C281.198 33.5563 280.804 33.4452 280.28 33.4452C279.231 33.4452 278.547 33.9786 278.234 35.0455L276.981 34.9269C277.513 33.1044 278.642 32.1931 280.353 32.1931C281.198 32.1931 281.867 32.4154 282.363 32.8673C282.858 33.3192 283.105 33.8823 283.105 34.5639C283.105 35.0306 283.04 35.5789 282.909 36.2086L282.428 38.4164C282.275 39.1202 282.202 39.6833 282.202 40.1204C282.202 40.4241 282.253 40.8168 282.341 41.3058H281.081C281.023 41.0243 280.979 40.6538 280.957 40.1945ZM273.792 36.7865C273.486 36.9347 272.962 37.0532 272.227 37.1273C271.476 37.2014 270.959 37.3051 270.683 37.4311C270.399 37.557 270.18 37.7422 270.027 37.9941C269.867 38.246 269.794 38.5349 269.794 38.8683C269.794 39.3203 269.918 39.6759 270.166 39.9426C270.413 40.2019 270.748 40.3352 271.163 40.3352C271.557 40.3352 271.943 40.2093 272.307 39.9648C272.671 39.7203 272.969 39.3647 273.202 38.898C273.435 38.4238 273.632 37.7274 273.792 36.7865ZM273.253 40.1945C272.809 40.676 272.387 41.0094 271.986 41.2021C271.593 41.3947 271.192 41.491 270.785 41.491C270.151 41.491 269.62 41.2613 269.205 40.7946C268.782 40.3278 268.571 39.6981 268.571 38.9054C268.571 38.3349 268.695 37.8385 268.942 37.4162C269.19 36.9939 269.532 36.668 269.984 36.4457C270.428 36.216 271.069 36.0901 271.899 36.0456C272.598 36.0086 273.078 35.9567 273.341 35.9123C273.603 35.8604 273.821 35.7937 274.011 35.6974C274.127 35.2751 274.185 34.9343 274.185 34.6676C274.185 34.2972 274.047 34.0008 273.77 33.7786C273.494 33.5563 273.1 33.4452 272.576 33.4452C271.527 33.4452 270.843 33.9786 270.53 35.0455L269.277 34.9269C269.809 33.1044 270.938 32.1931 272.649 32.1931C273.494 32.1931 274.163 32.4154 274.659 32.8673C275.154 33.3192 275.401 33.8823 275.401 34.5639C275.401 35.0306 275.336 35.5789 275.205 36.2086L274.724 38.4164C274.571 39.1202 274.498 39.6833 274.498 40.1204C274.498 40.4241 274.549 40.8168 274.637 41.3058H273.377C273.319 41.0243 273.282 40.6538 273.253 40.1945ZM256.848 41.3058L258.355 32.3858H259.585L259.338 33.8675C259.819 33.2081 260.241 32.7636 260.605 32.5339C260.969 32.3043 261.355 32.1931 261.763 32.1931C262.207 32.1931 262.586 32.3339 262.899 32.6228C263.205 32.9118 263.408 33.3192 263.51 33.8675C263.874 33.3118 264.26 32.8895 264.668 32.608C265.076 32.3265 265.498 32.1931 265.95 32.1931C266.518 32.1931 266.955 32.3635 267.275 32.7043C267.588 33.0451 267.748 33.5415 267.748 34.1935C267.748 34.475 267.69 34.9343 267.574 35.5641L266.547 41.2984H265.316L266.357 35.4085C266.445 34.9269 266.489 34.5787 266.489 34.3713C266.489 34.0749 266.408 33.8453 266.256 33.6897C266.103 33.5341 265.899 33.4526 265.637 33.4526C265.302 33.4526 264.938 33.5785 264.566 33.8304C264.195 34.0823 263.896 34.438 263.671 34.8825C263.445 35.327 263.248 36.0308 263.073 36.9865L262.302 41.3058H261.071L262.127 35.2899C262.2 34.8825 262.243 34.5861 262.243 34.4083C262.243 34.112 262.171 33.8823 262.01 33.7119C261.857 33.5415 261.668 33.4526 261.442 33.4526C260.896 33.4526 260.372 33.7341 259.877 34.2972C259.382 34.8603 259.025 35.7937 258.806 37.0977L258.085 41.3058H256.848V41.3058ZM253.76 41.3058L255.267 32.3858H256.498L254.991 41.3058H253.76ZM255.544 30.7188L255.835 29H257.066L256.775 30.7188H255.544ZM247.585 37.5644L247.578 37.9274C247.578 38.6609 247.746 39.261 248.088 39.7277C248.35 40.0908 248.692 40.2686 249.122 40.2686C249.682 40.2686 250.185 39.913 250.651 39.1943C251.255 38.246 251.554 37.0754 251.554 35.6826C251.554 34.9714 251.401 34.4231 251.088 34.0305C250.775 33.6378 250.403 33.4452 249.981 33.4452C249.566 33.4452 249.173 33.6304 248.809 34.0082C248.445 34.3787 248.146 34.9417 247.928 35.69C247.695 36.4383 247.585 37.0606 247.585 37.5644ZM250.942 39.9944C250.25 40.9946 249.515 41.491 248.743 41.491C248.08 41.491 247.52 41.1872 247.054 40.5797C246.588 39.9722 246.355 39.061 246.355 37.8385C246.355 36.7495 246.544 35.7493 246.915 34.8454C247.287 33.9342 247.746 33.2674 248.292 32.8377C248.838 32.408 249.377 32.1931 249.915 32.1931C250.811 32.1931 251.488 32.7266 251.94 33.8008L252.784 29H254.015L251.852 41.3058H250.702L250.942 39.9944ZM236.379 37.6311L236.372 37.9497C236.372 38.7053 236.517 39.2758 236.823 39.6611C237.122 40.0463 237.493 40.2389 237.93 40.2389C238.279 40.2389 238.629 40.0908 238.971 39.8018C239.313 39.5129 239.619 38.9721 239.903 38.1793C240.18 37.394 240.318 36.6161 240.318 35.8604C240.318 35.0529 240.173 34.4454 239.874 34.0379C239.583 33.6304 239.211 33.423 238.767 33.423C238.367 33.423 237.988 33.623 237.609 34.0157C237.238 34.4083 236.918 35.0603 236.663 35.9715C236.473 36.6383 236.379 37.1866 236.379 37.6311ZM234.551 41.3058L236.626 29H237.857L237.114 33.4007C237.507 32.9488 237.864 32.6377 238.185 32.4598C238.498 32.282 238.818 32.1931 239.146 32.1931C239.808 32.1931 240.369 32.4969 240.828 33.1044C241.287 33.7119 241.512 34.6158 241.512 35.8234C241.512 36.9347 241.33 37.9422 240.959 38.8387C240.588 39.7426 240.136 40.4093 239.597 40.839C239.058 41.2687 238.527 41.491 238.003 41.491C237.02 41.491 236.328 40.8613 235.92 39.5944L235.629 41.3058H234.551V41.3058ZM232.221 36.7865C231.915 36.9347 231.391 37.0532 230.655 37.1273C229.905 37.2014 229.388 37.3051 229.112 37.4311C228.828 37.557 228.609 37.7422 228.456 37.9941C228.296 38.246 228.216 38.5349 228.216 38.8683C228.216 39.3203 228.34 39.6759 228.587 39.9426C228.835 40.2019 229.17 40.3352 229.585 40.3352C229.985 40.3352 230.364 40.2093 230.728 39.9648C231.092 39.7203 231.391 39.3647 231.624 38.898C231.864 38.4238 232.061 37.7274 232.221 36.7865ZM231.682 40.1945C231.238 40.676 230.816 41.0094 230.415 41.2021C230.015 41.3947 229.621 41.491 229.214 41.491C228.58 41.491 228.049 41.2613 227.634 40.7946C227.211 40.3278 227 39.6981 227 38.9054C227 38.3349 227.124 37.8385 227.371 37.4162C227.619 36.9939 227.961 36.668 228.413 36.4457C228.857 36.216 229.498 36.0901 230.328 36.0456C231.027 36.0086 231.507 35.9567 231.77 35.9123C232.032 35.8604 232.25 35.7937 232.439 35.6974C232.556 35.2751 232.614 34.9343 232.614 34.6676C232.614 34.2972 232.476 34.0008 232.199 33.7786C231.922 33.5563 231.529 33.4452 231.005 33.4452C229.956 33.4452 229.272 33.9786 228.959 35.0455L227.706 34.9269C228.238 33.1044 229.367 32.1931 231.078 32.1931C231.922 32.1931 232.592 32.4154 233.087 32.8673C233.583 33.3192 233.83 33.8823 233.83 34.5639C233.83 35.0306 233.765 35.5789 233.634 36.2086L233.153 38.4164C233 39.1202 232.927 39.6833 232.927 40.1204C232.927 40.4241 232.978 40.8168 233.066 41.3058H231.806C231.748 41.0243 231.704 40.6538 231.682 40.1945Z" fill="white"/>
</svg>
